<?xml version="1.0" standalone="no"?>
<!DOCTYPE svg PUBLIC "-//W3C//DTD SVG 20010904//EN"
 "http://www.w3.org/TR/2001/REC-SVG-20010904/DTD/svg10.dtd">
<svg version="1.0" xmlns="http://www.w3.org/2000/svg"
 width="4945.000000pt" height="1072.000000pt" viewBox="0 0 4945.000000 1072.000000"
 preserveAspectRatio="xMidYMid meet">

<g transform="translate(0.000000,1072.000000) scale(0.100000,-0.100000)"
fill="#000000" stroke="none">
<path d="M11020 5250 l0 -2980 510 0 510 0 2 2309 3 2310 1055 -2315 1055
-2314 658 0 657 0 0 2985 0 2985 -510 0 -510 0 -1 -2272 c0 -1671 -3 -2269
-11 -2257 -6 9 -462 1031 -1013 2270 l-1002 2254 -701 3 -702 2 0 -2980z"/>
<path d="M37230 5245 l0 -2985 510 0 510 0 0 2985 0 2985 -510 0 -510 0 0
-2985z"/>
<path d="M27135 6559 c-338 -23 -676 -150 -835 -314 -19 -19 -38 -35 -42 -35
-4 0 -8 70 -8 155 l0 155 -510 0 -510 0 0 -2130 0 -2130 510 0 510 0 3 1328
c2 1244 4 1331 21 1387 93 312 361 501 776 546 190 21 403 -8 553 -75 84 -37
192 -112 243 -169 62 -69 121 -196 145 -309 18 -89 19 -152 19 -1400 l0 -1308
495 0 494 0 4 1318 3 1317 22 83 c57 216 155 332 367 437 349 173 796 163
1063 -25 91 -64 146 -128 192 -225 48 -100 69 -185 80 -328 5 -62 10 -667 10
-1344 l0 -1233 510 0 510 0 0 1223 c0 1255 -5 1425 -40 1625 -126 704 -686
1281 -1380 1422 -285 58 -625 39 -961 -54 -334 -92 -547 -203 -722 -378 l-88
-87 -102 102 c-144 146 -273 228 -498 317 -252 101 -559 148 -834 129z"/>
<path d="M40920 6559 c-530 -30 -957 -206 -1304 -539 -343 -329 -537 -797
-587 -1414 -15 -188 -6 -583 15 -719 79 -486 240 -830 536 -1141 297 -313 672
-499 1150 -573 162 -24 529 -24 695 1 456 69 820 249 1125 555 255 257 427
568 519 942 46 186 61 312 68 544 19 711 -149 1272 -512 1703 -305 364 -813
606 -1335 637 -196 11 -238 12 -370 4z m424 -999 c174 -39 312 -114 436 -240
173 -174 300 -424 357 -705 14 -72 18 -135 17 -315 0 -211 -2 -231 -26 -322
-36 -132 -108 -298 -170 -394 -62 -94 -189 -225 -273 -281 -181 -121 -362
-173 -606 -173 -300 0 -528 85 -723 271 -164 155 -277 361 -335 610 -50 217
-26 587 55 829 54 160 144 320 245 434 141 159 364 274 594 305 102 14 324 4
429 -19z"/>
<path d="M22450 6553 c-121 -9 -347 -48 -483 -82 -416 -106 -786 -299 -1077
-559 l-54 -49 39 -45 c22 -25 150 -165 284 -311 l244 -267 51 48 c118 112 285
210 473 278 599 217 1210 140 1354 -171 37 -79 49 -160 49 -332 0 -79 -1 -143
-3 -143 -1 0 -49 9 -107 20 -744 142 -1541 -28 -1974 -420 -316 -286 -449
-583 -449 -1000 -1 -416 111 -722 345 -945 100 -96 165 -141 301 -205 118 -56
234 -92 397 -122 153 -29 483 -31 635 -5 335 59 565 161 791 353 l64 55 0
-196 0 -195 520 0 520 0 0 1303 c0 1526 -9 1844 -60 2042 -47 184 -118 310
-250 445 -236 242 -519 384 -925 465 -66 13 -169 29 -229 34 -101 10 -348 12
-456 4z m773 -2350 l77 -6 0 -367 0 -366 -27 -26 c-48 -45 -191 -137 -291
-187 -123 -62 -237 -102 -388 -137 -105 -24 -140 -28 -289 -28 -188 -1 -244 9
-368 66 -84 39 -156 113 -188 196 -20 49 -23 76 -24 187 0 110 3 140 23 196
87 251 287 392 643 454 182 32 560 40 832 18z"/>
<path d="M17816 6534 c-629 -85 -1137 -506 -1399 -1159 -74 -185 -119 -359
-154 -590 -25 -175 -25 -634 0 -795 78 -487 295 -913 637 -1249 270 -265 585
-429 955 -497 150 -28 404 -26 554 4 147 30 297 80 440 148 63 30 116 54 117
54 10 0 2 -182 -12 -282 -39 -287 -173 -510 -356 -596 -184 -87 -460 -87 -706
0 -175 61 -351 165 -474 278 -38 34 -72 60 -76 58 -5 -1 -152 -153 -326 -337
l-317 -333 17 -27 c200 -310 850 -626 1404 -682 191 -19 477 5 677 57 260 67
469 182 650 357 299 289 463 628 546 1131 21 131 21 136 24 2289 l4 2157 -511
0 -510 0 0 -90 c0 -49 -2 -90 -5 -90 -2 0 -39 14 -82 31 -206 83 -414 139
-601 164 -137 18 -361 18 -496 -1z m674 -957 c140 -37 250 -80 385 -150 l120
-63 3 -986 2 -986 -87 -32 c-215 -78 -355 -103 -568 -103 -184 0 -291 18 -441
75 -384 144 -606 433 -655 851 -25 218 7 557 71 750 104 308 317 540 577 626
173 58 412 65 593 18z"/>
<path d="M34212 6535 c-187 -29 -411 -104 -576 -195 -40 -22 -76 -40 -79 -40
-4 0 -7 50 -7 110 l0 110 -510 0 -510 0 0 -2980 0 -2980 510 0 510 0 0 920 c0
506 2 920 5 920 2 0 33 -15 67 -34 160 -88 360 -132 708 -157 563 -40 1061
136 1457 514 284 271 505 649 602 1030 50 196 65 328 65 572 -1 415 -69 734
-229 1060 -112 229 -246 418 -424 596 -287 286 -645 475 -1036 545 -126 22
-433 27 -553 9z m243 -965 c134 -16 239 -45 350 -100 120 -58 205 -121 301
-222 122 -129 190 -243 249 -421 45 -137 65 -253 72 -432 15 -380 -75 -664
-279 -880 -153 -163 -351 -268 -593 -316 -116 -23 -406 -18 -535 10 -120 25
-304 85 -403 129 l-67 31 0 981 0 980 33 20 c17 11 77 42 132 69 265 129 504
178 740 151z"/>
<path d="M45625 6539 c-181 -23 -396 -93 -574 -185 -58 -30 -106 -54 -108 -54
-2 0 -3 50 -3 110 l0 110 -510 0 -510 0 0 -2980 0 -2980 510 0 510 0 0 921 c0
506 3 919 8 917 248 -127 390 -162 772 -189 580 -41 1084 145 1490 551 267
266 470 624 565 994 54 210 68 360 62 635 -9 405 -70 676 -227 996 -356 728
-1034 1171 -1783 1164 -73 -1 -163 -6 -202 -10z m317 -985 c327 -62 599 -280
749 -599 84 -179 121 -372 122 -630 0 -243 -30 -396 -114 -572 -111 -233 -328
-420 -587 -506 -161 -54 -277 -70 -457 -64 -214 8 -359 40 -587 129 l-128 51
0 988 0 988 143 70 c78 38 192 85 252 104 96 31 149 42 290 61 52 7 234 -4
317 -20z"/>
<path d="M6171 5854 c-93 -25 -164 -83 -213 -176 l-23 -43 -3 -1059 c-1 -679
1 -1063 7 -1069 7 -7 15 -6 24 1 13 11 60 8 80 -5 6 -3 7 -1 4 4 -4 6 0 13 8
17 8 3 17 0 21 -6 5 -7 2 -8 -7 -3 -8 5 -11 4 -6 0 16 -18 44 -14 56 8 7 14
10 15 6 4 -3 -12 -1 -17 7 -14 7 2 21 0 31 -5 12 -6 23 -6 31 1 12 10 46 8 66
-4 6 -3 10 -1 10 4 0 6 -5 11 -12 11 -6 0 -9 2 -6 5 9 10 39 -7 35 -19 -5 -13
43 -11 78 4 47 20 58 21 46 6 -13 -15 -5 -16 29 -3 41 15 59 15 53 -2 -5 -13
-3 -14 7 -4 9 8 19 9 32 2 14 -7 18 -7 16 3 -2 8 4 12 17 9 11 -2 29 -4 40 -5
11 -1 26 -8 33 -16 11 -13 11 -13 7 1 -3 9 1 21 8 28 12 9 15 8 13 -6 -1 -12
5 -17 17 -15 9 2 17 -3 18 -10 0 -7 4 -2 10 10 9 25 36 25 31 1 -3 -11 -1 -12
9 -1 7 6 24 12 39 12 15 0 20 -3 13 -8 -7 -4 12 -8 42 -8 37 0 55 4 55 12 0 7
8 10 20 7 11 -3 20 -9 20 -14 0 -5 5 -9 11 -9 6 0 9 7 5 15 -7 19 -1 19 18 -1
10 -10 16 -11 16 -3 0 9 3 9 15 -1 11 -10 18 -9 30 4 18 18 40 22 30 6 -3 -5
-1 -10 4 -10 18 0 26 5 23 13 -3 11 6 9 38 -8 22 -11 30 -12 33 -2 4 7 6 8 6
1 1 -12 54 -10 73 2 7 5 8 2 3 -6 -6 -10 -4 -11 6 -4 19 12 49 16 49 6 0 -14
45 -8 57 7 6 9 15 13 19 8 4 -4 2 -7 -4 -7 -7 0 -12 -5 -12 -12 0 -6 3 -8 6
-5 4 3 16 2 27 -4 14 -8 18 -8 13 0 -9 14 43 11 64 -3 13 -10 13 -9 0 8 -14
18 -14 19 5 12 11 -5 26 -9 33 -9 6 0 12 -5 12 -10 0 -6 8 0 19 12 17 20 19
20 26 4 5 -11 9 -14 12 -6 2 7 11 9 20 6 10 -4 14 -2 10 4 -7 11 18 9 53 -4
22 -9 70 -10 70 -2 0 3 11 4 25 1 14 -2 25 -8 25 -14 0 -5 6 -3 14 4 10 9 11
17 4 26 -8 9 -7 11 6 6 9 -3 16 -10 16 -15 0 -4 9 -13 20 -19 16 -8 20 -8 18
2 -3 13 10 14 85 6 21 -3 40 -1 43 3 2 4 21 6 42 4 20 -2 42 1 49 6 8 7 14 5
21 -7 5 -9 15 -14 23 -12 8 3 22 1 31 -4 14 -6 16 -5 12 7 -3 8 -10 12 -15 9
-5 -3 -9 0 -9 5 0 15 12 14 39 -6 14 -9 21 -11 17 -4 -6 9 -1 10 18 5 17 -4
26 -2 26 6 0 10 3 10 15 0 9 -7 15 -8 15 -2 0 11 25 10 36 -1 11 -11 66 -8 59
3 -3 6 -1 10 4 10 6 0 11 -5 11 -12 0 -6 9 -3 21 8 16 14 20 15 18 4 -2 -8 1
-15 6 -15 6 0 9 3 8 6 -3 10 31 4 55 -9 16 -9 27 -10 36 -3 12 10 59 6 79 -6
6 -3 7 -1 4 4 -4 6 0 13 8 17 8 3 17 0 21 -6 5 -7 2 -8 -7 -3 -8 5 -11 4 -6 0
16 -18 44 -14 56 8 7 14 10 15 6 4 -3 -12 -1 -17 7 -14 7 2 21 0 31 -5 12 -6
23 -6 31 1 12 10 46 8 66 -4 6 -3 10 -1 10 4 0 6 -5 11 -12 11 -6 0 -9 2 -6 5
9 10 39 -7 35 -19 -5 -13 43 -11 78 4 47 20 58 21 46 6 -13 -15 -5 -16 29 -3
41 15 59 15 53 -2 -5 -13 -3 -14 7 -4 9 8 19 9 32 2 14 -7 18 -7 16 3 -2 8 4
12 17 9 11 -2 29 -4 40 -5 11 -1 26 -8 33 -16 11 -13 11 -13 7 1 -3 9 1 21 8
28 12 9 15 8 13 -6 -1 -12 5 -17 17 -15 9 2 17 -3 18 -10 0 -7 4 -2 10 10 9
25 36 25 31 1 -3 -11 -1 -12 9 -1 7 6 24 12 39 12 15 0 20 -3 13 -8 -7 -4 12
-8 42 -8 37 0 55 4 55 12 0 7 8 10 20 7 11 -3 20 -9 20 -14 0 -5 5 -9 11 -9 6
0 9 7 5 15 -7 19 -1 19 18 -1 10 -10 16 -11 16 -3 0 9 3 9 15 -1 11 -10 18 -9
30 4 18 18 40 22 30 6 -3 -5 -1 -10 4 -10 18 0 26 5 24 13 -4 11 5 9 37 -8 22
-11 30 -12 33 -2 4 7 6 8 6 1 1 -12 54 -10 73 2 7 5 8 2 3 -6 -6 -10 -4 -11 6
-4 19 11 49 16 49 6 0 -4 11 -8 25 -8 18 -1 27 4 30 20 3 11 4 489 3 1061 l-3
1040 -23 46 c-37 75 -87 125 -160 161 l-67 33 -1720 2 c-1483 2 -1727 0 -1774
-13z m3266 -406 l23 -21 0 -624 0 -624 -25 -25 -25 -25 -296 3 c-279 3 -296 4
-310 22 -12 17 -14 121 -14 648 0 615 0 628 20 648 19 19 33 20 312 20 286 0
292 0 315 -22z m-2602 -1917 c3 -5 2 -12 -3 -15 -5 -3 -9 1 -9 9 0 17 3 19 12
6z m2560 0 c3 -5 2 -12 -3 -15 -5 -3 -9 1 -9 9 0 17 3 19 12 6z m-3055 -17 c0
-2 -9 -4 -20 -4 -11 0 -20 4 -20 9 0 5 9 7 20 4 11 -3 20 -7 20 -9z m1100 6
c0 -5 -2 -10 -4 -10 -3 0 -8 5 -11 10 -3 6 -1 10 4 10 6 0 11 -4 11 -10z m250
6 c0 -3 -4 -8 -10 -11 -5 -3 -10 -1 -10 4 0 6 5 11 10 11 6 0 10 -2 10 -4z
m1210 -12 c0 -2 -9 -4 -20 -4 -11 0 -20 4 -20 9 0 5 9 7 20 4 11 -3 20 -7 20
-9z"/>
<path d="M1550 5307 c0 -9 -5 -19 -12 -23 -7 -4 -8 -3 -4 4 4 7 3 12 -3 12 -5
0 -13 -5 -17 -12 -5 -8 -10 -6 -15 8 -7 18 -8 18 -15 -3 -8 -28 -24 -30 -19
-3 5 24 1 25 -19 4 -15 -14 -16 -14 -16 3 -1 17 -1 17 -11 1 -10 -18 -37 -14
-52 6 -5 7 -11 6 -20 -5 -14 -18 -47 -22 -41 -4 3 6 -2 12 -10 12 -8 0 -12 -5
-9 -11 4 -6 -1 -5 -10 3 -16 13 -17 -46 -15 -1045 3 -868 6 -1066 17 -1096 19
-51 79 -127 126 -160 89 -62 -26 -58 1875 -56 l1735 3 50 25 c57 28 125 92
151 141 38 74 39 105 34 1164 -3 567 -6 1026 -8 1022 -1 -4 -10 -4 -19 2 -10
5 -26 5 -41 0 -15 -6 -21 -5 -17 1 3 6 1 10 -4 10 -6 0 -11 -5 -11 -11 0 -7
-11 -8 -31 -4 -19 4 -29 3 -26 -2 4 -6 -4 -8 -18 -5 -14 2 -28 9 -31 14 -3 5
-13 3 -22 -4 -13 -11 -14 -11 -7 2 5 9 -1 7 -15 -5 -13 -11 -20 -14 -16 -7 9
14 -10 17 -19 2 -4 -6 -11 -7 -17 -4 -6 4 -5 10 3 16 10 7 8 8 -6 2 -24 -9
-67 -10 -118 -2 -20 3 -40 2 -43 -3 -3 -5 -10 -9 -15 -9 -6 0 -8 4 -5 8 2 4
-6 8 -19 8 -16 0 -21 -4 -17 -15 3 -9 1 -12 -6 -7 -7 4 -12 14 -12 22 0 11 -5
10 -22 -6 -16 -15 -24 -17 -30 -8 -4 7 -8 9 -8 3 0 -5 -5 -4 -12 3 -9 9 -15 7
-25 -6 -14 -16 -14 -16 -9 1 3 10 2 15 -3 12 -5 -3 -12 -1 -15 4 -8 12 -56
-11 -49 -24 2 -5 -1 -3 -9 5 -17 21 -49 14 -41 -8 4 -13 2 -12 -10 3 -10 12
-20 16 -24 10 -9 -11 -43 -16 -40 -6 1 3 -2 6 -8 6 -5 0 -9 -3 -8 -6 1 -3 -4
-6 -12 -6 -8 0 -14 3 -13 6 2 19 -3 24 -11 12 -6 -9 -15 -11 -27 -6 -22 9
-104 13 -104 5 0 -4 5 -11 12 -18 9 -9 5 -9 -14 0 -15 7 -24 16 -22 20 3 5 1
8 -5 8 -5 0 -13 -5 -17 -11 -4 -8 -9 -7 -15 2 -7 12 -10 12 -21 0 -11 -11 -11
-13 1 -6 10 6 12 4 6 -5 -6 -10 -12 -8 -27 9 -13 17 -18 19 -18 8 0 -9 -5 -19
-12 -23 -7 -4 -8 -3 -4 4 4 7 3 12 -3 12 -5 0 -13 -5 -17 -12 -5 -8 -10 -6
-15 8 -7 18 -8 18 -15 -3 -8 -28 -24 -30 -19 -3 5 24 1 25 -19 4 -15 -14 -16
-14 -16 3 -1 17 -1 17 -11 1 -10 -18 -37 -14 -52 6 -5 7 -11 6 -20 -5 -14 -18
-47 -22 -41 -4 3 6 -2 12 -10 12 -8 0 -12 -5 -9 -11 4 -6 -1 -5 -10 3 -12 9
-17 10 -17 2 0 -7 -4 -10 -9 -6 -5 3 -13 1 -16 -5 -5 -8 -12 -7 -23 2 -12 10
-14 10 -8 1 10 -18 -10 -16 -28 3 -14 13 -16 13 -16 1 0 -12 -7 -13 -35 -7
-19 4 -35 6 -35 3 0 -3 -7 0 -15 7 -9 7 -15 8 -15 2 0 -12 -18 -11 -39 2 -11
7 -13 4 -9 -12 8 -27 3 -27 -23 -1 -17 17 -23 18 -36 8 -20 -18 -53 -19 -53
-2 0 11 -4 11 -21 2 -15 -8 -19 -8 -15 0 10 16 -10 13 -28 -4 -16 -16 -31 -20
-22 -6 3 5 -5 11 -19 13 -13 3 -22 2 -20 -2 3 -5 -2 -11 -11 -14 -12 -4 -15
-2 -11 9 4 8 1 17 -5 21 -7 4 -8 3 -4 -5 10 -15 -35 -32 -51 -19 -8 6 -19 5
-34 -2 -12 -7 -19 -8 -16 -3 4 6 -12 9 -38 8 -24 0 -42 3 -39 7 3 4 0 8 -5 8
-6 0 -11 -4 -11 -8 0 -5 -16 -7 -35 -6 -21 2 -35 -1 -35 -8 0 -9 -3 -9 -12 0
-7 7 -19 12 -28 12 -13 0 -13 -1 0 -10 25 -16 -7 -12 -40 5 -19 10 -30 11 -30
5 0 -6 -3 -9 -7 -7 -5 3 -17 1 -28 -3 -11 -4 -30 -4 -42 1 -14 5 -23 5 -23 -1
0 -14 -27 -13 -32 1 -6 19 -52 16 -69 -5 -13 -16 -16 -16 -16 -3 0 9 5 13 10
10 6 -4 7 -1 2 7 -6 10 -11 9 -22 -5 -7 -11 -13 -13 -13 -6 0 7 -4 10 -8 7 -4
-2 -14 -1 -22 4 -7 4 -24 4 -37 -1 -16 -6 -22 -5 -18 1 3 6 1 10 -4 10 -6 0
-11 -5 -11 -11 0 -7 -11 -8 -31 -4 -19 4 -29 3 -26 -2 4 -6 -4 -8 -18 -5 -14
2 -28 9 -31 14 -3 5 -13 3 -22 -4 -13 -11 -14 -11 -7 2 5 9 -1 7 -15 -5 -13
-11 -20 -14 -16 -7 9 14 -10 17 -19 2 -4 -6 -11 -7 -17 -4 -6 4 -5 10 3 16 10
7 8 8 -6 2 -24 -9 -67 -10 -118 -2 -20 3 -40 2 -43 -3 -3 -5 -10 -9 -15 -9 -6
0 -8 4 -5 8 2 4 -6 8 -19 8 -16 0 -21 -4 -17 -15 3 -9 1 -12 -6 -7 -7 4 -12
14 -12 22 0 11 -5 10 -22 -6 -16 -15 -24 -17 -30 -8 -4 7 -8 9 -8 4 0 -6 -5
-5 -12 2 -9 9 -15 7 -25 -6 -14 -16 -14 -16 -9 1 3 10 2 15 -3 12 -5 -3 -12
-1 -15 4 -8 12 -56 -11 -49 -24 2 -5 -1 -3 -9 5 -17 21 -49 14 -41 -8 4 -13 2
-12 -10 3 -10 12 -20 16 -24 10 -9 -11 -43 -16 -40 -6 1 3 -2 6 -8 6 -5 0 -9
-3 -8 -6 1 -3 -4 -6 -12 -6 -8 0 -14 3 -13 6 2 19 -3 24 -11 12 -6 -9 -15 -11
-27 -6 -22 9 -104 13 -104 5 0 -4 5 -11 12 -18 9 -9 5 -9 -14 0 -15 7 -24 16
-22 20 3 5 1 8 -5 8 -5 0 -13 -5 -17 -11 -4 -8 -9 -7 -15 2 -7 12 -10 12 -21
0 -11 -11 -11 -13 1 -6 10 6 12 4 6 -5 -6 -10 -12 -8 -27 9 -13 17 -18 19 -18
8z m474 -12 c3 -8 1 -15 -4 -15 -6 0 -10 7 -10 15 0 8 2 15 4 15 2 0 6 -7 10
-15z m2560 0 c3 -8 1 -15 -4 -15 -6 0 -10 7 -10 15 0 8 2 15 4 15 2 0 6 -7 10
-15z m-2319 -4 c3 -5 2 -12 -3 -15 -5 -3 -9 1 -9 9 0 17 3 19 12 6z m1276 -8
c13 -16 12 -17 -3 -4 -10 7 -18 15 -18 17 0 8 8 3 21 -13z m1284 8 c3 -5 2
-12 -3 -15 -5 -3 -9 1 -9 9 0 17 3 19 12 6z m-2446 -647 c21 -26 21 -35 21
-640 l0 -613 -24 -28 -24 -28 -283 -1 c-168 -1 -292 3 -305 8 -12 6 -27 21
-33 35 -8 17 -11 207 -11 629 0 606 2 635 34 656 6 4 145 8 308 8 l297 0 20
-26z"/>
<path d="M1395 5300 c3 -5 8 -10 11 -10 2 0 4 5 4 10 0 6 -5 10 -11 10 -5 0
-7 -4 -4 -10z"/>
<path d="M3955 5300 c3 -5 8 -10 11 -10 2 0 4 5 4 10 0 6 -5 10 -11 10 -5 0
-7 -4 -4 -10z"/>
<path d="M8450 3509 c0 -5 5 -7 10 -4 6 3 10 8 10 11 0 2 -4 4 -10 4 -5 0 -10
-5 -10 -11z"/>
</g>
</svg>
