<?xml version="1.0" standalone="no"?>
<!DOCTYPE svg PUBLIC "-//W3C//DTD SVG 20010904//EN"
 "http://www.w3.org/TR/2001/REC-SVG-20010904/DTD/svg10.dtd">
<svg version="1.0" xmlns="http://www.w3.org/2000/svg"
 width="1000.000000pt" height="1000.000000pt" viewBox="0 0 1000.000000 1000.000000"
 preserveAspectRatio="xMidYMid meet">

<g transform="translate(0.000000,1000.000000) scale(0.100000,-0.100000)"
fill="#000000" stroke="none">
<path d="M5615 6556 c-100 -32 -172 -95 -218 -194 l-32 -67 3 -1124 c1 -619 5
-1127 7 -1129 3 -3 12 1 22 9 9 8 14 9 10 3 -4 -7 -1 -14 7 -17 20 -8 28 4 14
20 -8 11 -7 12 6 7 9 -3 16 -13 16 -22 0 -8 3 -12 7 -9 3 4 13 1 21 -6 13 -9
14 -9 8 1 -4 7 -2 12 4 12 7 0 10 7 7 14 -4 10 -1 13 8 9 8 -3 13 -9 10 -13
-10 -16 40 -20 52 -3 11 14 14 14 39 -2 23 -15 26 -15 21 -2 -3 9 -1 19 5 23
7 4 8 3 4 -4 -4 -7 7 -13 31 -17 21 -3 46 -8 56 -10 10 -2 14 1 11 7 -4 6 -1
8 7 6 8 -3 22 -1 32 4 12 6 17 5 17 -7 0 -12 9 -14 42 -10 23 3 48 11 55 17 9
7 13 7 13 -1 0 -8 6 -9 18 -2 11 6 24 6 36 -1 10 -5 26 -8 37 -5 10 3 19 1 19
-4 0 -6 7 -6 19 0 10 6 21 7 25 4 3 -3 6 2 7 13 0 18 1 18 9 -1 5 -11 9 -14 9
-6 1 11 4 11 18 0 11 -9 14 -10 9 -2 -5 9 -2 11 8 7 9 -3 13 -10 10 -15 -3 -5
-1 -9 4 -9 15 0 22 28 9 34 -9 3 -9 5 0 5 6 1 15 -3 18 -9 3 -5 14 -10 23 -10
15 0 15 2 2 10 -9 6 -10 10 -3 10 11 0 35 -32 30 -41 -1 -2 5 4 14 15 13 15
17 16 22 5 3 -9 6 -10 6 -2 1 7 8 10 16 7 8 -4 12 -11 8 -17 -4 -6 -1 -7 7 -2
7 4 16 2 22 -6 6 -10 7 -6 3 11 -7 23 -6 24 7 6 13 -17 16 -17 30 -2 21 20 29
21 22 1 -5 -11 -2 -13 10 -9 9 3 13 11 9 18 -4 6 0 5 9 -2 13 -11 21 -11 39
-2 14 8 19 8 15 1 -10 -15 7 -14 23 2 11 9 13 9 7 0 -5 -9 2 -13 23 -13 17 0
31 5 31 11 0 5 5 7 10 4 6 -4 7 -12 3 -18 -3 -7 3 -3 15 7 20 17 22 18 22 2 0
-11 4 -14 12 -9 21 12 69 13 62 1 -4 -7 -2 -8 4 -4 7 4 12 14 12 22 0 8 5 12
10 9 6 -4 7 -11 4 -17 -5 -7 -1 -9 9 -5 10 3 17 2 17 -4 0 -6 7 -3 16 5 17 18
28 21 19 6 -3 -5 -3 -11 2 -11 47 -7 63 -6 63 2 0 6 -5 7 -12 3 -7 -5 -8 -3
-3 5 5 9 10 10 18 2 6 -6 22 -11 37 -11 20 0 22 2 10 10 -8 5 -10 10 -5 10 6
0 21 -7 34 -16 18 -13 25 -14 31 -4 5 9 32 13 79 12 42 0 69 3 66 9 -4 5 1 9
9 9 10 0 13 -6 10 -15 -4 -9 0 -15 10 -15 9 0 16 4 16 10 0 5 6 8 13 6 37 -12
68 -16 63 -8 -3 5 2 9 10 9 8 0 13 -6 10 -13 -4 -10 1 -11 21 -3 21 8 24 7 20
-6 -5 -12 -3 -13 16 -2 12 6 31 19 41 27 12 9 16 10 12 3 -5 -8 -1 -13 11 -14
10 -1 32 -2 50 -3 18 -1 35 -5 38 -8 4 -3 18 0 32 7 18 10 32 11 45 4 11 -6
25 -6 36 -1 10 6 26 6 42 -1 14 -5 36 -12 50 -14 19 -3 22 -1 10 7 -13 8 -13
10 2 10 9 0 19 -6 22 -12 4 -7 4 -2 2 12 l-5 25 20 -25 c20 -24 21 -24 35 -5
8 10 14 14 14 9 0 -6 17 -11 38 -11 20 0 56 -3 80 -6 23 -3 42 -1 42 4 0 5 15
7 33 5 17 -2 38 1 46 7 11 9 13 9 8 1 -4 -7 -1 -14 7 -17 20 -8 28 4 14 20 -8
11 -7 12 6 7 9 -3 16 -13 16 -22 0 -8 3 -12 7 -9 3 4 13 1 21 -6 13 -9 14 -9
8 1 -4 7 -2 12 4 12 7 0 10 7 7 14 -4 10 -1 13 8 9 8 -3 13 -9 10 -13 -10 -16
40 -20 52 -3 11 14 14 14 39 -2 23 -15 26 -15 21 -2 -3 9 -1 19 5 23 7 4 8 3
4 -4 -4 -7 7 -13 31 -17 21 -3 46 -8 56 -10 10 -2 14 1 11 7 -4 6 -1 8 7 6 8
-3 22 -1 32 4 12 6 17 5 17 -7 0 -12 9 -14 42 -10 23 3 48 11 55 17 9 7 13 7
13 -1 0 -8 6 -9 18 -2 11 6 24 6 36 -1 10 -5 26 -8 37 -5 10 3 19 1 19 -4 0
-6 7 -6 19 0 10 6 21 7 25 4 3 -3 6 2 7 13 0 18 1 18 9 -1 5 -11 9 -14 9 -6 1
11 4 11 18 0 11 -9 14 -10 9 -2 -5 9 -2 11 8 7 9 -3 13 -10 10 -15 -3 -5 -1
-9 4 -9 15 0 22 28 9 34 -9 3 -9 5 0 5 6 1 15 -3 18 -9 3 -5 14 -10 23 -10 15
0 15 2 2 10 -9 6 -10 10 -3 10 11 0 35 -32 30 -41 -1 -2 5 4 14 15 13 15 17
16 22 5 3 -9 6 -10 6 -2 1 7 8 10 16 7 8 -4 12 -11 8 -17 -4 -6 -1 -7 7 -2 7
4 16 2 22 -6 6 -10 7 -6 3 11 -7 23 -6 24 7 6 13 -17 16 -17 30 -2 21 20 29
21 22 1 -5 -11 -2 -13 10 -9 9 3 13 11 9 18 -4 6 0 5 9 -2 13 -11 21 -11 39
-2 14 8 19 8 15 1 -10 -15 7 -14 23 2 11 10 13 10 7 0 -5 -9 2 -13 23 -13 17
0 31 5 31 11 0 5 5 7 10 4 6 -4 7 -12 3 -18 -3 -7 3 -3 15 7 20 17 22 18 22 2
0 -11 4 -14 12 -9 21 12 69 13 62 1 -4 -7 -2 -8 4 -4 7 4 12 14 12 22 0 8 5
12 10 9 6 -4 7 -11 4 -17 -5 -7 -1 -9 9 -5 10 3 17 2 17 -4 0 -6 7 -3 16 5 17
18 28 21 19 6 -3 -5 -3 -11 2 -11 47 -7 63 -6 63 2 0 6 -5 7 -12 3 -7 -5 -8
-3 -3 5 5 9 10 10 18 2 6 -6 22 -11 37 -11 20 0 22 2 10 10 -8 5 -10 10 -5 10
6 0 21 -7 34 -16 18 -13 25 -14 31 -4 5 9 32 13 79 12 42 0 69 3 66 9 -4 5 1
9 10 9 14 0 15 106 13 1123 l-3 1122 -29 58 c-35 67 -93 124 -168 164 l-53 28
-1870 2 c-1489 1 -1878 -1 -1910 -11z m3512 -430 l28 -24 0 -677 0 -677 -24
-19 c-22 -18 -43 -19 -337 -19 -299 0 -315 1 -334 20 -11 11 -22 30 -25 42 -3
13 -4 317 -3 676 l3 654 28 24 28 24 304 0 304 0 28 -24z m-3287 -2081 c0 -2
-9 -3 -19 -2 -11 0 -18 5 -15 9 4 6 34 0 34 -7z m935 5 c3 -5 1 -10 -4 -10 -6
0 -11 5 -11 10 0 6 2 10 4 10 3 0 8 -4 11 -10z m1625 -5 c0 -2 -9 -3 -19 -2
-11 0 -18 5 -15 9 4 6 34 0 34 -7z m935 5 c3 -5 1 -10 -4 -10 -6 0 -11 5 -11
10 0 6 2 10 4 10 3 0 8 -4 11 -10z"/>
<path d="M358 4880 c-2 -608 0 -1129 5 -1158 4 -30 18 -75 31 -101 30 -58 112
-135 174 -164 l47 -22 1885 0 1885 0 47 22 c66 30 143 105 175 172 l28 56 3
1138 c2 1138 2 1138 -18 1132 -11 -4 -20 -2 -20 4 0 6 -5 11 -11 11 -5 0 -8
-4 -4 -9 9 -15 -51 -7 -71 9 -15 13 -16 13 -9 1 6 -11 4 -13 -8 -8 -10 4 -17
2 -17 -5 0 -7 -5 -6 -15 2 -12 10 -15 10 -15 -4 0 -9 -7 -16 -16 -16 -14 0
-15 2 -3 18 10 13 8 12 -10 -3 -14 -11 -21 -14 -17 -7 4 6 2 12 -3 12 -6 0
-11 -6 -11 -12 0 -7 -5 -5 -11 6 -7 12 -14 14 -18 8 -5 -8 -15 -7 -34 3 -31
16 -36 9 -9 -12 16 -14 16 -14 -3 -8 -11 4 -26 8 -33 8 -7 0 -10 7 -8 14 5 11
2 11 -15 -1 -14 -10 -29 -12 -49 -6 -16 5 -31 5 -35 2 -4 -4 -23 -8 -43 -9
-20 -1 -54 -4 -74 -7 -25 -3 -38 -1 -38 7 0 7 -4 6 -10 -3 -8 -13 -10 -12 -10
4 0 15 -3 16 -14 7 -8 -7 -17 -8 -20 -3 -3 5 -19 7 -37 4 -22 -3 -30 -1 -25 6
4 7 -13 4 -39 -6 -40 -15 -47 -15 -55 -2 -8 13 -10 12 -10 -2 0 -9 -4 -20 -10
-23 -6 -3 -7 1 -4 9 7 19 4 19 -30 6 -15 -5 -28 -5 -31 0 -3 4 3 10 12 13 10
2 -3 4 -29 3 -51 -1 -55 -4 -35 -26 7 -9 4 -8 -8 1 -11 9 -25 14 -32 12 -6 -2
-14 1 -18 6 -3 6 -13 11 -21 11 -8 0 -12 -4 -9 -10 3 -5 1 -10 -4 -10 -6 0
-11 4 -11 9 0 5 -11 9 -25 9 -13 0 -22 -4 -19 -9 3 -5 -6 -5 -20 1 -17 6 -26
6 -26 0 0 -6 5 -10 12 -10 6 0 8 -3 5 -6 -4 -4 -14 -1 -22 6 -13 11 -78 18
-87 10 -12 -10 -51 -4 -55 7 -5 12 -7 12 -14 2 -6 -10 -16 -10 -42 -2 -26 8
-42 7 -66 -3 -17 -7 -31 -9 -31 -4 0 9 -26 8 -36 -3 -4 -3 -15 -2 -24 3 -13 7
-21 5 -30 -5 -7 -8 -18 -15 -24 -15 -6 0 -5 4 3 9 8 5 9 11 3 15 -6 4 -15 -1
-20 -11 -8 -13 -14 -14 -24 -6 -7 5 -27 13 -45 16 -25 5 -33 3 -36 -11 -3 -14
-6 -12 -15 8 -9 21 -11 22 -11 5 -1 -15 -4 -16 -13 -7 -14 14 -32 16 -23 3 6
-10 -41 -5 -58 6 -6 3 -7 1 -3 -5 4 -7 3 -12 -3 -12 -5 0 -13 5 -16 10 -4 6
-11 8 -16 4 -5 -3 -7 -9 -4 -14 3 -4 -5 -6 -17 -2 -15 4 -19 2 -13 -7 4 -7 -4
-5 -19 4 -14 10 -26 14 -26 10 0 -4 -7 -2 -15 5 -8 7 -15 9 -15 5 0 -4 -8 -1
-17 6 -10 9 -14 9 -10 2 6 -9 -1 -11 -24 -8 -21 3 -29 0 -26 -8 3 -7 -3 -13
-14 -13 -11 0 -18 5 -16 11 3 5 -8 10 -23 10 -16 0 -26 -3 -24 -6 8 -13 -40
-18 -60 -6 -30 17 -66 16 -66 -2 0 -8 -3 -11 -7 -7 -5 4 -8 12 -8 17 0 5 -4 8
-10 7 -5 -2 -9 -6 -7 -10 1 -5 -5 -8 -14 -8 -9 0 -12 5 -8 13 4 6 -3 3 -16 -8
l-23 -20 6 20 c7 19 6 19 -7 3 -17 -23 -27 -23 -19 -1 4 11 3 14 -5 9 -7 -4
-12 -2 -12 6 0 10 -3 9 -10 -2 -5 -8 -12 -11 -16 -7 -4 4 -13 -1 -19 -10 -11
-14 -17 -15 -38 -6 -18 9 -28 9 -37 0 -10 -9 -12 -8 -7 6 8 21 3 22 -17 1 -9
-9 -16 -11 -16 -4 0 6 -4 8 -10 5 -5 -3 -10 1 -10 10 0 15 -1 15 -16 1 -18
-18 -34 -21 -34 -6 0 6 -5 10 -11 10 -5 0 -8 -4 -4 -9 9 -15 -51 -7 -71 9 -15
13 -16 13 -9 1 6 -11 4 -13 -8 -8 -10 4 -17 2 -17 -5 0 -7 -5 -6 -15 2 -12 10
-15 10 -15 -4 0 -9 -7 -16 -16 -16 -14 0 -15 2 -3 18 10 13 8 12 -10 -3 -14
-11 -21 -14 -17 -7 4 6 2 12 -3 12 -6 0 -11 -6 -11 -12 0 -7 -5 -5 -11 6 -7
12 -14 14 -18 8 -5 -8 -15 -7 -34 3 -31 16 -36 9 -9 -12 16 -14 16 -14 -3 -8
-11 4 -26 8 -33 8 -7 0 -10 7 -8 14 5 11 2 11 -15 -1 -14 -10 -29 -12 -49 -6
-16 5 -31 5 -35 2 -4 -4 -23 -8 -43 -9 -20 -1 -54 -4 -74 -7 -25 -3 -38 -1
-38 7 0 7 -4 6 -10 -3 -8 -13 -10 -12 -10 4 0 15 -3 16 -14 7 -8 -7 -17 -8
-20 -3 -3 5 -19 7 -37 4 -22 -3 -30 -1 -25 6 4 7 -13 4 -39 -6 -40 -15 -47
-15 -55 -2 -8 13 -10 12 -10 -2 0 -9 -4 -20 -10 -23 -6 -3 -7 1 -4 9 7 19 4
19 -30 6 -15 -5 -28 -5 -31 0 -3 4 3 10 12 13 10 2 -3 4 -29 3 -51 -1 -55 -4
-35 -26 7 -9 4 -8 -8 1 -11 9 -25 14 -32 12 -6 -2 -14 1 -18 6 -3 6 -13 11
-21 11 -8 0 -12 -4 -9 -10 3 -5 1 -10 -4 -10 -6 0 -11 4 -11 9 0 5 -11 9 -25
9 -13 0 -22 -4 -19 -9 3 -5 -6 -5 -20 1 -17 6 -26 6 -26 0 0 -6 5 -10 12 -10
6 0 8 -3 5 -6 -4 -4 -14 -1 -22 6 -13 11 -78 18 -87 10 -12 -10 -51 -4 -55 7
-5 12 -7 12 -14 2 -6 -10 -16 -10 -42 -2 -26 8 -42 7 -66 -3 -17 -7 -31 -9
-31 -4 0 9 -26 8 -36 -3 -4 -3 -15 -2 -24 3 -13 7 -21 5 -30 -5 -7 -8 -18 -15
-24 -15 -6 0 -5 4 3 9 8 5 9 11 3 15 -6 4 -15 -1 -20 -11 -8 -13 -14 -14 -24
-6 -7 5 -27 13 -45 16 -25 5 -33 3 -36 -11 -3 -14 -6 -12 -15 8 -8 18 -11
-279 -14 -1080z m316 1072 c2 -4 -4 -8 -14 -8 -10 0 -16 4 -14 8 3 4 9 8 14 8
5 0 11 -4 14 -8z m41 -2 c3 -5 1 -10 -4 -10 -6 0 -11 5 -11 10 0 6 2 10 4 10
3 0 8 -4 11 -10z m1969 -2 c-3 -4 -12 -8 -20 -8 -8 0 -13 4 -10 8 3 5 12 9 20
9 8 0 13 -4 10 -9z m550 4 c2 -4 -4 -8 -14 -8 -10 0 -16 4 -14 8 3 4 9 8 14 8
5 0 11 -4 14 -8z m41 -2 c3 -5 1 -10 -4 -10 -6 0 -11 5 -11 10 0 6 2 10 4 10
3 0 8 -4 11 -10z m-1728 -682 l23 -21 0 -674 0 -674 -25 -25 -25 -25 -316 3
-316 3 -19 24 c-18 22 -19 49 -19 693 l0 669 25 24 24 25 312 0 c307 0 313 0
336 -22z"/>
<path d="M1485 5960 c-3 -5 1 -10 9 -10 9 0 16 5 16 10 0 6 -4 10 -9 10 -6 0
-13 -4 -16 -10z"/>
<path d="M4045 5960 c-3 -5 1 -10 9 -10 9 0 16 5 16 10 0 6 -4 10 -9 10 -6 0
-13 -4 -16 -10z"/>
<path d="M7015 4040 c-3 -5 -1 -10 4 -10 6 0 11 5 11 10 0 6 -2 10 -4 10 -3 0
-8 -4 -11 -10z"/>
<path d="M9575 4040 c-3 -5 -1 -10 4 -10 6 0 11 5 11 10 0 6 -2 10 -4 10 -3 0
-8 -4 -11 -10z"/>
<path d="M5576 4032 c-3 -5 1 -9 9 -9 8 0 12 4 9 9 -3 4 -7 8 -9 8 -2 0 -6 -4
-9 -8z"/>
<path d="M8136 4032 c-3 -5 1 -9 9 -9 8 0 12 4 9 9 -3 4 -7 8 -9 8 -2 0 -6 -4
-9 -8z"/>
</g>
</svg>
